<mxfile host="app.diagrams.net" modified="2024-03-06T04:03:28.683Z" agent="Mozilla/5.0 (Windows NT 10.0; Win64; x64) AppleWebKit/537.36 (KHTML, like Gecko) Chrome/122.0.0.0 Safari/537.36" etag="4dncf0fmr9IPGzkMWtw7" version="23.1.1" type="device">
  <diagram name="Page-1" id="sM5pP0SsHT05D0Jo4Hao">
    <mxGraphModel dx="493" dy="569" grid="1" gridSize="10" guides="1" tooltips="1" connect="1" arrows="1" fold="1" page="1" pageScale="1" pageWidth="850" pageHeight="1100" math="0" shadow="0">
      <root>
        <mxCell id="0" />
        <mxCell id="1" parent="0" />
        <mxCell id="NvBpjSkXLJ2ak6wMofSn-1" value="Create hashmap - count&lt;br&gt;&lt;br&gt;{ value : occurence of that value in the passed in listk }&amp;nbsp;" style="whiteSpace=wrap;html=1;aspect=fixed;" parent="1" vertex="1">
          <mxGeometry x="240" y="50" width="110" height="110" as="geometry" />
        </mxCell>
        <mxCell id="NvBpjSkXLJ2ak6wMofSn-3" value="Create a list -&lt;br&gt;freq&lt;br&gt;&lt;br&gt;&amp;nbsp;The list should contain a sublist for every value in the passed in list." style="whiteSpace=wrap;html=1;aspect=fixed;" parent="1" vertex="1">
          <mxGeometry x="390" y="20" width="140" height="140" as="geometry" />
        </mxCell>
        <mxCell id="NvBpjSkXLJ2ak6wMofSn-19" value="No" style="edgeStyle=orthogonalEdgeStyle;rounded=0;orthogonalLoop=1;jettySize=auto;html=1;exitX=1;exitY=0.5;exitDx=0;exitDy=0;entryX=1;entryY=0.5;entryDx=0;entryDy=0;" parent="1" source="NvBpjSkXLJ2ak6wMofSn-5" target="NvBpjSkXLJ2ak6wMofSn-16" edge="1">
          <mxGeometry relative="1" as="geometry">
            <mxPoint x="465" y="160" as="sourcePoint" />
            <mxPoint x="490" y="499.9999999999999" as="targetPoint" />
            <Array as="points">
              <mxPoint x="585" y="210" />
              <mxPoint x="585" y="505" />
            </Array>
          </mxGeometry>
        </mxCell>
        <mxCell id="NvBpjSkXLJ2ak6wMofSn-38" value="Yes" style="edgeStyle=orthogonalEdgeStyle;rounded=0;orthogonalLoop=1;jettySize=auto;html=1;exitX=0.5;exitY=1;exitDx=0;exitDy=0;entryX=0.5;entryY=0;entryDx=0;entryDy=0;" parent="1" source="NvBpjSkXLJ2ak6wMofSn-5" target="NvBpjSkXLJ2ak6wMofSn-7" edge="1">
          <mxGeometry relative="1" as="geometry" />
        </mxCell>
        <mxCell id="zmZfaodOAtrWHAUuFCNq-1" style="edgeStyle=orthogonalEdgeStyle;rounded=0;orthogonalLoop=1;jettySize=auto;html=1;entryX=0.5;entryY=1;entryDx=0;entryDy=0;" edge="1" parent="1" source="NvBpjSkXLJ2ak6wMofSn-5" target="NvBpjSkXLJ2ak6wMofSn-7">
          <mxGeometry relative="1" as="geometry" />
        </mxCell>
        <mxCell id="NvBpjSkXLJ2ak6wMofSn-5" value="Is there a number remaining?" style="rounded=0;whiteSpace=wrap;html=1;" parent="1" vertex="1">
          <mxGeometry x="320" y="180" width="120" height="60" as="geometry" />
        </mxCell>
        <mxCell id="NvBpjSkXLJ2ak6wMofSn-11" style="edgeStyle=orthogonalEdgeStyle;rounded=0;orthogonalLoop=1;jettySize=auto;html=1;exitX=0.5;exitY=1;exitDx=0;exitDy=0;" parent="1" source="NvBpjSkXLJ2ak6wMofSn-7" target="NvBpjSkXLJ2ak6wMofSn-9" edge="1">
          <mxGeometry relative="1" as="geometry">
            <Array as="points">
              <mxPoint x="380" y="330" />
              <mxPoint x="290" y="330" />
            </Array>
          </mxGeometry>
        </mxCell>
        <mxCell id="NvBpjSkXLJ2ak6wMofSn-39" value="No" style="edgeLabel;html=1;align=center;verticalAlign=middle;resizable=0;points=[];" parent="NvBpjSkXLJ2ak6wMofSn-11" vertex="1" connectable="0">
          <mxGeometry x="0.0857" relative="1" as="geometry">
            <mxPoint as="offset" />
          </mxGeometry>
        </mxCell>
        <mxCell id="NvBpjSkXLJ2ak6wMofSn-41" value="Yes" style="edgeLabel;html=1;align=center;verticalAlign=middle;resizable=0;points=[];" parent="NvBpjSkXLJ2ak6wMofSn-11" vertex="1" connectable="0">
          <mxGeometry x="0.0637" y="-1" relative="1" as="geometry">
            <mxPoint as="offset" />
          </mxGeometry>
        </mxCell>
        <mxCell id="NvBpjSkXLJ2ak6wMofSn-12" style="edgeStyle=orthogonalEdgeStyle;rounded=0;orthogonalLoop=1;jettySize=auto;html=1;exitX=0.5;exitY=1;exitDx=0;exitDy=0;entryX=0.5;entryY=0;entryDx=0;entryDy=0;" parent="1" source="NvBpjSkXLJ2ak6wMofSn-7" target="NvBpjSkXLJ2ak6wMofSn-10" edge="1">
          <mxGeometry relative="1" as="geometry">
            <Array as="points">
              <mxPoint x="380" y="330" />
              <mxPoint x="470" y="330" />
            </Array>
          </mxGeometry>
        </mxCell>
        <mxCell id="NvBpjSkXLJ2ak6wMofSn-40" value="No" style="edgeLabel;html=1;align=center;verticalAlign=middle;resizable=0;points=[];" parent="NvBpjSkXLJ2ak6wMofSn-12" vertex="1" connectable="0">
          <mxGeometry x="-0.0051" relative="1" as="geometry">
            <mxPoint as="offset" />
          </mxGeometry>
        </mxCell>
        <mxCell id="NvBpjSkXLJ2ak6wMofSn-7" value="Has the number already been seen?" style="rounded=0;whiteSpace=wrap;html=1;" parent="1" vertex="1">
          <mxGeometry x="320" y="260" width="120" height="50" as="geometry" />
        </mxCell>
        <mxCell id="NvBpjSkXLJ2ak6wMofSn-29" style="edgeStyle=orthogonalEdgeStyle;rounded=0;orthogonalLoop=1;jettySize=auto;html=1;entryX=0;entryY=0.75;entryDx=0;entryDy=0;" parent="1" source="NvBpjSkXLJ2ak6wMofSn-9" target="NvBpjSkXLJ2ak6wMofSn-5" edge="1">
          <mxGeometry relative="1" as="geometry">
            <Array as="points">
              <mxPoint x="200" y="385" />
              <mxPoint x="200" y="225" />
            </Array>
          </mxGeometry>
        </mxCell>
        <mxCell id="NvBpjSkXLJ2ak6wMofSn-9" value="Increment the value of count[number] by one" style="rounded=0;whiteSpace=wrap;html=1;" parent="1" vertex="1">
          <mxGeometry x="230" y="350" width="120" height="70" as="geometry" />
        </mxCell>
        <mxCell id="NvBpjSkXLJ2ak6wMofSn-28" style="edgeStyle=orthogonalEdgeStyle;rounded=0;orthogonalLoop=1;jettySize=auto;html=1;exitX=1;exitY=0.5;exitDx=0;exitDy=0;entryX=1;entryY=0.75;entryDx=0;entryDy=0;" parent="1" source="NvBpjSkXLJ2ak6wMofSn-10" target="NvBpjSkXLJ2ak6wMofSn-5" edge="1">
          <mxGeometry relative="1" as="geometry" />
        </mxCell>
        <mxCell id="NvBpjSkXLJ2ak6wMofSn-10" value="Add the value of count[number] to the dictionary with an initial value of 0" style="rounded=0;whiteSpace=wrap;html=1;" parent="1" vertex="1">
          <mxGeometry x="410" y="350" width="120" height="70" as="geometry" />
        </mxCell>
        <mxCell id="NvBpjSkXLJ2ak6wMofSn-16" value="For each key in count, take the key and and append it to the sublist in freq that corresponds to the value.&amp;nbsp;&lt;br&gt;&lt;br&gt;(For ex: If one appears once, then it should be in freq[1])&lt;br&gt;&lt;br&gt;freq: [[], [1], []]" style="rounded=0;whiteSpace=wrap;html=1;" parent="1" vertex="1">
          <mxGeometry x="295" y="440" width="170" height="130" as="geometry" />
        </mxCell>
        <mxCell id="NvBpjSkXLJ2ak6wMofSn-20" value="Create a list, result, that will contain the top k frequency elements. It should be initialized to an empty list&lt;br&gt;&lt;br&gt;Iterate through this list in desc. order" style="rounded=0;whiteSpace=wrap;html=1;" parent="1" vertex="1">
          <mxGeometry x="295" y="590" width="170" height="110" as="geometry" />
        </mxCell>
        <mxCell id="NvBpjSkXLJ2ak6wMofSn-27" value="Yes" style="edgeStyle=orthogonalEdgeStyle;rounded=0;orthogonalLoop=1;jettySize=auto;html=1;exitX=0.5;exitY=1;exitDx=0;exitDy=0;entryX=0.5;entryY=0;entryDx=0;entryDy=0;" parent="1" source="NvBpjSkXLJ2ak6wMofSn-22" edge="1">
          <mxGeometry relative="1" as="geometry">
            <mxPoint x="380" y="800" as="targetPoint" />
          </mxGeometry>
        </mxCell>
        <mxCell id="NvBpjSkXLJ2ak6wMofSn-44" style="edgeStyle=orthogonalEdgeStyle;rounded=0;orthogonalLoop=1;jettySize=auto;html=1;entryX=0;entryY=0.5;entryDx=0;entryDy=0;" parent="1" source="NvBpjSkXLJ2ak6wMofSn-22" target="NvBpjSkXLJ2ak6wMofSn-24" edge="1">
          <mxGeometry relative="1" as="geometry">
            <Array as="points">
              <mxPoint x="250" y="750" />
              <mxPoint x="250" y="1000" />
            </Array>
          </mxGeometry>
        </mxCell>
        <mxCell id="NvBpjSkXLJ2ak6wMofSn-45" value="No" style="edgeLabel;html=1;align=center;verticalAlign=middle;resizable=0;points=[];" parent="NvBpjSkXLJ2ak6wMofSn-44" vertex="1" connectable="0">
          <mxGeometry x="-0.0417" y="-1" relative="1" as="geometry">
            <mxPoint as="offset" />
          </mxGeometry>
        </mxCell>
        <mxCell id="NvBpjSkXLJ2ak6wMofSn-22" value="Are there remaining sublists in freq?" style="rounded=0;whiteSpace=wrap;html=1;" parent="1" vertex="1">
          <mxGeometry x="315" y="720" width="130" height="60" as="geometry" />
        </mxCell>
        <mxCell id="NvBpjSkXLJ2ak6wMofSn-31" style="edgeStyle=orthogonalEdgeStyle;rounded=0;orthogonalLoop=1;jettySize=auto;html=1;exitX=0.5;exitY=1;exitDx=0;exitDy=0;entryX=0.5;entryY=0;entryDx=0;entryDy=0;" parent="1" edge="1">
          <mxGeometry relative="1" as="geometry">
            <mxPoint x="380" y="860" as="sourcePoint" />
            <mxPoint x="380" y="880" as="targetPoint" />
          </mxGeometry>
        </mxCell>
        <mxCell id="NvBpjSkXLJ2ak6wMofSn-24" value="Return the res list" style="rounded=0;whiteSpace=wrap;html=1;" parent="1" vertex="1">
          <mxGeometry x="315" y="970" width="130" height="60" as="geometry" />
        </mxCell>
        <mxCell id="NvBpjSkXLJ2ak6wMofSn-36" style="edgeStyle=orthogonalEdgeStyle;rounded=0;orthogonalLoop=1;jettySize=auto;html=1;exitX=1;exitY=0.5;exitDx=0;exitDy=0;" parent="1" source="NvBpjSkXLJ2ak6wMofSn-32" edge="1">
          <mxGeometry relative="1" as="geometry">
            <mxPoint x="445.1428571428571" y="750" as="targetPoint" />
            <Array as="points">
              <mxPoint x="480" y="910" />
              <mxPoint x="480" y="750" />
            </Array>
          </mxGeometry>
        </mxCell>
        <mxCell id="NvBpjSkXLJ2ak6wMofSn-32" value="Take all of the numbers in that sublist and append them to res" style="rounded=0;whiteSpace=wrap;html=1;" parent="1" vertex="1">
          <mxGeometry x="315" y="880" width="130" height="60" as="geometry" />
        </mxCell>
        <mxCell id="NvBpjSkXLJ2ak6wMofSn-34" style="edgeStyle=orthogonalEdgeStyle;rounded=0;orthogonalLoop=1;jettySize=auto;html=1;entryX=0;entryY=0.5;entryDx=0;entryDy=0;" parent="1" source="NvBpjSkXLJ2ak6wMofSn-33" target="NvBpjSkXLJ2ak6wMofSn-24" edge="1">
          <mxGeometry relative="1" as="geometry">
            <Array as="points">
              <mxPoint x="280" y="830" />
              <mxPoint x="280" y="1000" />
            </Array>
          </mxGeometry>
        </mxCell>
        <mxCell id="NvBpjSkXLJ2ak6wMofSn-46" value="Yes" style="edgeLabel;html=1;align=center;verticalAlign=middle;resizable=0;points=[];" parent="NvBpjSkXLJ2ak6wMofSn-34" vertex="1" connectable="0">
          <mxGeometry x="-0.3959" y="-1" relative="1" as="geometry">
            <mxPoint as="offset" />
          </mxGeometry>
        </mxCell>
        <mxCell id="NvBpjSkXLJ2ak6wMofSn-33" value="Does the the length of the resulting list == k" style="rounded=0;whiteSpace=wrap;html=1;" parent="1" vertex="1">
          <mxGeometry x="315" y="800" width="130" height="60" as="geometry" />
        </mxCell>
      </root>
    </mxGraphModel>
  </diagram>
</mxfile>
